<svg width="719" height="539" viewBox="0 0 719 539" fill="none" xmlns="http://www.w3.org/2000/svg">
<path fill-rule="evenodd" clip-rule="evenodd" d="M221.2 0H365.9C419 0 462.1 43.1 462.1 96.2V173.9C462.1 227 419 270.1 365.9 270.1H203C181.3 270.1 160.7 279.8 147 296.6L136.8 309C132.8 313.8 125 311 125 304.8V96.2C125 43.1 168.1 0 221.2 0ZM185.1 211.2C191.033 210.4 197 210 203 210H365.9C385.8 210 402 193.8 402 173.9V96.2C402 76.3 385.8 60.1 365.9 60.1H221.3C201.4 60.1 185.1 76.3 185.1 96.2V211.2Z" fill="url(#paint0_linear_2_2)"/>
<path d="M296.1 0H365.9C419 0 462.1 43.1 462.1 96.2V156.8H402V96.2C402 76.3 385.8 60.1 365.9 60.1H296.1V0Z" fill="url(#paint1_linear_2_2)"/>
<path d="M185.1 131.1V211.2C191.033 210.4 197 210 203 210H365.9C385.8 210 402 193.8 402 173.9V131.1H462.1V173.9C462.1 227 419 270.1 365.9 270.1H203C181.3 270.1 160.7 279.8 147 296.6L136.8 309C132.8 313.8 125 311 125 304.8V131.1H185.1Z" fill="url(#paint2_linear_2_2)"/>
<path fill-rule="evenodd" clip-rule="evenodd" d="M326.4 210H365.9C385.8 210 402 193.8 402 173.9V141.9C402 125.4 415.4 112 431.8 112H537.3C590.5 112 633.6 155.1 633.6 208.3V416.8C633.6 423 625.8 425.8 621.8 421L611.6 408.6C597.9 391.9 577.3 382.2 555.6 382.2C555.6 382.2 471.3 382.2 392.7 382.2C339.6 382.2 296.5 339.1 296.5 285.9V239.9C296.5 223.4 309.9 210 326.4 210ZM555.6 322C561.6 322 567.567 322.4 573.5 323.2V208.3C573.5 188.3 557.3 172.2 537.4 172.2H462.1V173.9C462.1 227 419 270.1 365.9 270.1H356.6V285.9C356.6 289.8 357.3 293.6 358.4 297.1C363.1 311.6 376.7 322 392.7 322H555.6Z" fill="url(#paint3_linear_2_2)"/>
<path d="M185.1 63.1V96.2C185.1 76.3 201.4 60.1 221.3 60.1H325.2V0H248.2C213.4 0 185.1 28.2 185.1 63.1Z" fill="url(#paint4_linear_2_2)"/>
<path style="mix-blend-mode:multiply" opacity="0.93" d="M573.5 175.1V208.2C573.5 188.3 557.3 172.2 537.3 172.2H433.4V112H510.4C545.2 112 573.5 140.2 573.5 175.1Z" fill="url(#paint5_linear_2_2)"/>
<path style="mix-blend-mode:multiply" opacity="0.93" d="M356.6 210V270.1H365.9C419 270.1 462.1 227 462.1 173.9V172.2H402V173.9C402 193.8 385.8 210 365.9 210H356.6Z" fill="url(#paint6_linear_2_2)"/>
<path style="mix-blend-mode:multiply" opacity="0.93" d="M356.6 210V270.1H365.9C419 270.1 462.1 227 462.1 173.9V172.2H402V173.9C402 193.8 385.8 210 365.9 210H356.6Z" fill="url(#paint7_linear_2_2)"/>
<path style="mix-blend-mode:multiply" opacity="0.93" d="M426 382.2C504.6 382.2 532.6 382.2 532.6 382.2V322H392.7C376.7 322 363.1 311.6 358.4 297.1H356.6C356.6 297.1 347.5 382.2 426 382.2Z" fill="url(#paint8_linear_2_2)"/>
<path d="M330.5 135.7C330.5 146.2 339 154.7 349.5 154.7C360 154.7 368.5 146.2 368.5 135.7C368.5 125.1 360 116.6 349.5 116.6C339 116.6 330.5 125.1 330.5 135.7Z" fill="url(#paint9_linear_2_2)"/>
<path d="M274.5 135.7C274.5 146.2 283 154.7 293.6 154.7C304.1 154.7 312.6 146.2 312.6 135.7C312.6 125.1 304.1 116.6 293.6 116.6C283 116.6 274.5 125.1 274.5 135.7Z" fill="url(#paint10_linear_2_2)"/>
<path d="M218.6 135.7C218.6 146.2 227.1 154.7 237.6 154.7C248.1 154.7 256.6 146.2 256.6 135.7C256.6 125.1 248.1 116.6 237.6 116.6C227.1 116.6 218.6 125.1 218.6 135.7Z" fill="url(#paint11_linear_2_2)"/>
<path d="M23.4545 446.182V516H4.5V446.182H23.4545ZM51.5284 486.545V516H32.7102V463.636H50.5739V473.591H51.1193C52.2557 470.273 54.2557 467.67 57.1193 465.784C60.0057 463.898 63.3693 462.955 67.2102 462.955C70.9148 462.955 74.1307 463.807 76.858 465.511C79.608 467.193 81.733 469.511 83.233 472.466C84.7557 475.42 85.5057 478.795 85.483 482.591V516H66.6648V486.545C66.6875 483.955 66.0284 481.92 64.6875 480.443C63.3693 478.966 61.5284 478.227 59.1648 478.227C57.6193 478.227 56.267 478.568 55.108 479.25C53.9716 479.909 53.0966 480.864 52.483 482.114C51.8693 483.341 51.5511 484.818 51.5284 486.545ZM126 463.636V477.273H91.5V463.636H126ZM98.1818 451.091H117V499.159C117 499.886 117.125 500.5 117.375 501C117.625 501.477 118.011 501.841 118.534 502.091C119.057 502.318 119.727 502.432 120.545 502.432C121.114 502.432 121.773 502.364 122.523 502.227C123.295 502.091 123.864 501.977 124.227 501.886L126.955 515.114C126.114 515.364 124.909 515.67 123.341 516.034C121.795 516.398 119.955 516.636 117.818 516.75C113.5 516.977 109.875 516.534 106.943 515.42C104.011 514.284 101.807 512.5 100.33 510.068C98.8523 507.636 98.1364 504.591 98.1818 500.932V451.091ZM158.207 516.955C152.616 516.955 147.798 515.886 143.753 513.75C139.73 511.591 136.628 508.5 134.446 504.477C132.287 500.432 131.207 495.591 131.207 489.955C131.207 484.545 132.298 479.818 134.48 475.773C136.662 471.727 139.741 468.58 143.719 466.33C147.696 464.08 152.389 462.955 157.798 462.955C161.753 462.955 165.332 463.568 168.537 464.795C171.741 466.023 174.48 467.807 176.753 470.148C179.026 472.466 180.776 475.284 182.003 478.602C183.23 481.92 183.844 485.659 183.844 489.818V494.182H137.071V483.818H166.526C166.503 482.318 166.116 481 165.366 479.864C164.639 478.705 163.651 477.807 162.401 477.17C161.173 476.511 159.776 476.182 158.207 476.182C156.685 476.182 155.287 476.511 154.014 477.17C152.741 477.807 151.719 478.693 150.946 479.83C150.196 480.966 149.798 482.295 149.753 483.818V495C149.753 496.682 150.105 498.182 150.81 499.5C151.514 500.818 152.526 501.852 153.844 502.602C155.162 503.352 156.753 503.727 158.616 503.727C159.912 503.727 161.094 503.545 162.162 503.182C163.253 502.818 164.185 502.295 164.957 501.614C165.73 500.909 166.298 500.068 166.662 499.091H183.844C183.253 502.727 181.855 505.886 179.651 508.568C177.446 511.227 174.526 513.295 170.889 514.773C167.276 516.227 163.048 516.955 158.207 516.955ZM191.523 516V463.636H209.795V473.591H210.341C211.295 469.909 212.807 467.216 214.875 465.511C216.966 463.807 219.409 462.955 222.205 462.955C223.023 462.955 223.83 463.023 224.625 463.159C225.443 463.273 226.227 463.443 226.977 463.67V479.727C226.045 479.409 224.898 479.17 223.534 479.011C222.17 478.852 221 478.773 220.023 478.773C218.182 478.773 216.523 479.193 215.045 480.034C213.591 480.852 212.443 482.011 211.602 483.511C210.761 484.989 210.341 486.727 210.341 488.727V516H191.523ZM287.514 463.636L269.923 516H248.105L230.514 463.636H250.287L258.741 498.273H259.287L267.741 463.636H287.514ZM292.866 516V463.636H311.685V516H292.866ZM302.276 458.182C299.73 458.182 297.548 457.341 295.73 455.659C293.912 453.977 293.003 451.955 293.003 449.591C293.003 447.227 293.912 445.205 295.73 443.523C297.548 441.841 299.73 441 302.276 441C304.844 441 307.026 441.841 308.821 443.523C310.639 445.205 311.548 447.227 311.548 449.591C311.548 451.955 310.639 453.977 308.821 455.659C307.026 457.341 304.844 458.182 302.276 458.182ZM346.364 516.955C340.773 516.955 335.955 515.886 331.909 513.75C327.886 511.591 324.784 508.5 322.602 504.477C320.443 500.432 319.364 495.591 319.364 489.955C319.364 484.545 320.455 479.818 322.636 475.773C324.818 471.727 327.898 468.58 331.875 466.33C335.852 464.08 340.545 462.955 345.955 462.955C349.909 462.955 353.489 463.568 356.693 464.795C359.898 466.023 362.636 467.807 364.909 470.148C367.182 472.466 368.932 475.284 370.159 478.602C371.386 481.92 372 485.659 372 489.818V494.182H325.227V483.818H354.682C354.659 482.318 354.273 481 353.523 479.864C352.795 478.705 351.807 477.807 350.557 477.17C349.33 476.511 347.932 476.182 346.364 476.182C344.841 476.182 343.443 476.511 342.17 477.17C340.898 477.807 339.875 478.693 339.102 479.83C338.352 480.966 337.955 482.295 337.909 483.818V495C337.909 496.682 338.261 498.182 338.966 499.5C339.67 500.818 340.682 501.852 342 502.602C343.318 503.352 344.909 503.727 346.773 503.727C348.068 503.727 349.25 503.545 350.318 503.182C351.409 502.818 352.341 502.295 353.114 501.614C353.886 500.909 354.455 500.068 354.818 499.091H372C371.409 502.727 370.011 505.886 367.807 508.568C365.602 511.227 362.682 513.295 359.045 514.773C355.432 516.227 351.205 516.955 346.364 516.955ZM388.295 516L375.205 463.636H394.023L400.023 495.545H400.432L407.114 463.636H425.386L432.341 495.273H432.75L438.477 463.636H457.295L444.205 516H423.886L416.523 487.909H415.977L408.614 516H388.295ZM477.614 516.818C474.273 516.818 471.318 516.273 468.75 515.182C466.205 514.068 464.205 512.386 462.75 510.136C461.295 507.886 460.568 505.023 460.568 501.545C460.568 498.682 461.057 496.239 462.034 494.216C463.011 492.17 464.375 490.5 466.125 489.205C467.875 487.909 469.909 486.92 472.227 486.239C474.568 485.557 477.091 485.114 479.795 484.909C482.727 484.682 485.08 484.409 486.852 484.091C488.648 483.75 489.943 483.284 490.739 482.693C491.534 482.08 491.932 481.273 491.932 480.273V480.136C491.932 478.773 491.409 477.727 490.364 477C489.318 476.273 487.977 475.909 486.341 475.909C484.545 475.909 483.08 476.307 481.943 477.102C480.83 477.875 480.159 479.068 479.932 480.682H462.614C462.841 477.5 463.852 474.568 465.648 471.886C467.466 469.182 470.114 467.023 473.591 465.409C477.068 463.773 481.409 462.955 486.614 462.955C490.364 462.955 493.727 463.398 496.705 464.284C499.682 465.148 502.216 466.364 504.307 467.932C506.398 469.477 507.989 471.295 509.08 473.386C510.193 475.455 510.75 477.705 510.75 480.136V516H493.159V508.636H492.75C491.705 510.591 490.432 512.17 488.932 513.375C487.455 514.58 485.761 515.455 483.852 516C481.966 516.545 479.886 516.818 477.614 516.818ZM483.75 504.955C485.182 504.955 486.523 504.659 487.773 504.068C489.045 503.477 490.08 502.625 490.875 501.511C491.67 500.398 492.068 499.045 492.068 497.455V493.091C491.568 493.295 491.034 493.489 490.466 493.67C489.92 493.852 489.33 494.023 488.693 494.182C488.08 494.341 487.42 494.489 486.716 494.625C486.034 494.761 485.318 494.886 484.568 495C483.114 495.227 481.92 495.602 480.989 496.125C480.08 496.625 479.398 497.25 478.943 498C478.511 498.727 478.295 499.545 478.295 500.455C478.295 501.909 478.807 503.023 479.83 503.795C480.852 504.568 482.159 504.955 483.75 504.955ZM519.741 516V463.636H538.56V516H519.741ZM529.151 458.182C526.605 458.182 524.423 457.341 522.605 455.659C520.787 453.977 519.878 451.955 519.878 449.591C519.878 447.227 520.787 445.205 522.605 443.523C524.423 441.841 526.605 441 529.151 441C531.719 441 533.901 441.841 535.696 443.523C537.514 445.205 538.423 447.227 538.423 449.591C538.423 451.955 537.514 453.977 535.696 455.659C533.901 457.341 531.719 458.182 529.151 458.182ZM596.011 480.682H578.693C578.602 479.614 578.227 478.693 577.568 477.92C576.909 477.148 576.057 476.557 575.011 476.148C573.989 475.716 572.852 475.5 571.602 475.5C569.989 475.5 568.602 475.795 567.443 476.386C566.284 476.977 565.716 477.818 565.739 478.909C565.716 479.682 566.045 480.398 566.727 481.057C567.432 481.716 568.784 482.227 570.784 482.591L581.42 484.5C586.784 485.477 590.773 487.125 593.386 489.443C596.023 491.739 597.352 494.818 597.375 498.682C597.352 502.409 596.239 505.648 594.034 508.398C591.852 511.125 588.864 513.239 585.068 514.739C581.295 516.216 576.989 516.955 572.148 516.955C564.148 516.955 557.886 515.318 553.364 512.045C548.864 508.773 546.352 504.455 545.83 499.091H564.511C564.761 500.75 565.58 502.034 566.966 502.943C568.375 503.83 570.148 504.273 572.284 504.273C574.011 504.273 575.432 503.977 576.545 503.386C577.682 502.795 578.261 501.955 578.284 500.864C578.261 499.864 577.761 499.068 576.784 498.477C575.83 497.886 574.33 497.409 572.284 497.045L563.011 495.409C557.67 494.477 553.67 492.705 551.011 490.091C548.352 487.477 547.034 484.114 547.057 480C547.034 476.364 547.989 473.284 549.92 470.761C551.875 468.216 554.659 466.284 558.273 464.966C561.909 463.625 566.216 462.955 571.193 462.955C578.761 462.955 584.727 464.523 589.091 467.659C593.477 470.795 595.784 475.136 596.011 480.682ZM604.585 516V463.636H623.403V516H604.585ZM613.994 458.182C611.449 458.182 609.267 457.341 607.449 455.659C605.631 453.977 604.722 451.955 604.722 449.591C604.722 447.227 605.631 445.205 607.449 443.523C609.267 441.841 611.449 441 613.994 441C616.563 441 618.744 441.841 620.54 443.523C622.358 445.205 623.267 447.227 623.267 449.591C623.267 451.955 622.358 453.977 620.54 455.659C618.744 457.341 616.563 458.182 613.994 458.182ZM632.991 516V463.636H650.855V473.591H651.401C652.491 470.318 654.355 467.727 656.991 465.818C659.628 463.909 662.764 462.955 666.401 462.955C670.082 462.955 673.253 463.932 675.912 465.886C678.571 467.818 680.173 470.386 680.719 473.591H681.264C682.151 470.386 684.037 467.818 686.923 465.886C689.81 463.932 693.196 462.955 697.082 462.955C702.105 462.955 706.173 464.568 709.287 467.795C712.423 471.023 713.991 475.318 713.991 480.682V516H695.173V485.455C695.173 483.159 694.594 481.364 693.435 480.068C692.276 478.75 690.719 478.091 688.764 478.091C686.832 478.091 685.298 478.75 684.162 480.068C683.048 481.364 682.491 483.159 682.491 485.455V516H664.491V485.455C664.491 483.159 663.912 481.364 662.753 480.068C661.594 478.75 660.037 478.091 658.082 478.091C656.787 478.091 655.673 478.386 654.741 478.977C653.81 479.568 653.082 480.42 652.56 481.534C652.06 482.625 651.81 483.932 651.81 485.455V516H632.991Z" fill="url(#paint12_linear_2_2)"/>
<defs>
<linearGradient id="paint0_linear_2_2" x1="621.521" y1="277.058" x2="371.762" y2="-98.855" gradientUnits="userSpaceOnUse">
<stop stop-color="#5C43C3"/>
<stop offset="1" stop-color="#5CBFFC"/>
</linearGradient>
<linearGradient id="paint1_linear_2_2" x1="455.627" y1="124.681" x2="454.215" y2="54.07" gradientUnits="userSpaceOnUse">
<stop stop-color="#4425A0"/>
<stop offset="1" stop-color="#36BDFF" stop-opacity="0"/>
</linearGradient>
<linearGradient id="paint2_linear_2_2" x1="384.588" y1="150.663" x2="293.975" y2="109.196" gradientUnits="userSpaceOnUse">
<stop stop-color="#4425A0"/>
<stop offset="1" stop-color="#36BDFF" stop-opacity="0"/>
</linearGradient>
<linearGradient id="paint3_linear_2_2" x1="185.595" y1="189.96" x2="355.813" y2="483.113" gradientUnits="userSpaceOnUse">
<stop offset="0.009" stop-color="#FF00C1"/>
<stop offset="1" stop-color="#9D3DEB"/>
</linearGradient>
<linearGradient id="paint4_linear_2_2" x1="129.896" y1="67.721" x2="331.303" y2="129.954" gradientUnits="userSpaceOnUse">
<stop stop-color="#4425A0"/>
<stop offset="1" stop-color="#36BDFF" stop-opacity="0"/>
</linearGradient>
<linearGradient id="paint5_linear_2_2" x1="438.584" y1="214.81" x2="575.872" y2="205.602" gradientUnits="userSpaceOnUse">
<stop stop-color="white" stop-opacity="0"/>
<stop offset="1" stop-color="#727D8D"/>
</linearGradient>
<linearGradient id="paint6_linear_2_2" x1="377.044" y1="168.505" x2="331.163" y2="181.25" gradientUnits="userSpaceOnUse">
<stop stop-color="white" stop-opacity="0"/>
<stop offset="1" stop-color="#727D8D"/>
</linearGradient>
<linearGradient id="paint7_linear_2_2" x1="463.941" y1="207.584" x2="468.552" y2="175.772" gradientUnits="userSpaceOnUse">
<stop stop-color="white" stop-opacity="0"/>
<stop offset="1" stop-color="#727D8D"/>
</linearGradient>
<linearGradient id="paint8_linear_2_2" x1="414.863" y1="300.761" x2="337.907" y2="331.758" gradientUnits="userSpaceOnUse">
<stop stop-color="white" stop-opacity="0"/>
<stop offset="1" stop-color="#727D8D"/>
</linearGradient>
<linearGradient id="paint9_linear_2_2" x1="385.032" y1="145.175" x2="359.021" y2="100.123" gradientUnits="userSpaceOnUse">
<stop stop-color="#5C43C3"/>
<stop offset="1" stop-color="#5CBFFC"/>
</linearGradient>
<linearGradient id="paint10_linear_2_2" x1="329.085" y1="145.175" x2="303.074" y2="100.123" gradientUnits="userSpaceOnUse">
<stop stop-color="#5C43C3"/>
<stop offset="1" stop-color="#5CBFFC"/>
</linearGradient>
<linearGradient id="paint11_linear_2_2" x1="273.139" y1="145.175" x2="247.128" y2="100.123" gradientUnits="userSpaceOnUse">
<stop stop-color="#5C43C3"/>
<stop offset="1" stop-color="#5CBFFC"/>
</linearGradient>
<linearGradient id="paint12_linear_2_2" x1="3.43847e-06" y1="257" x2="744.5" y2="696.5" gradientUnits="userSpaceOnUse">
<stop stop-color="#FFFAF9"/>
<stop offset="0.261092" stop-color="#FFDCD2"/>
<stop offset="1" stop-color="#FF4A17"/>
</linearGradient>
</defs>
</svg>
